# xmcd
#
# Track frame offsets: 
#        180
#        24137
#        41916
#        55742
#        70550
#        96553
#        114077
#        126599
#        145297
#        166975
#        192677
#        217950
#        238239
#
# Disc length: 3486 seconds
#
# Revision: 4
# Processed by: cddbd v1.5.2PL0 Copyright (c) Steve Scherf et al.
# Submitted via: ExactAudioCopy v1.0b1
#
DISCID=be0d9c0d
DTITLE=David Brosa - Elements of Love
DYEAR=1994
DGENRE=
TTITLE0=Elements of Love
TTITLE1=Dream Girl
TTITLE2=Natasha
TTITLE3=When I Was Homeless
TTITLE4=Evil Winds
TTITLE5=Can't Take My Eyes Off You
TTITLE6=Dangerous Autumn
TTITLE7=Song for the Second Woman (The Guitar)
TTITLE8=I Dream You Slowly
TTITLE9=It Is You
TTITLE10=What Will You Do
TTITLE11=I Loved Her Once, I Love Her Now
TTITLE12=The Way to Love
EXTD=
EXTT0=
EXTT1=
EXTT2=
EXTT3=
EXTT4=
EXTT5=
EXTT6=
EXTT7=
EXTT8=
EXTT9=
EXTT10=
EXTT11=
EXTT12=
PLAYORDER=
